<?xml version="1.0" ?>
<!-- Uploaded to: SVG Repo, www.svgrepo.com, Generator: SVG Repo Mixer Tools -->
<svg width="800px" height="800px" viewBox="0 0 512 512" id="Layer_1" version="1.1" xml:space="preserve" xmlns="http://www.w3.org/2000/svg" xmlns:xlink="http://www.w3.org/1999/xlink">
<style type="text/css">
	.st0{fill:#231F20;}
</style>
<g>
<path class="st0" d="M288.5,299H266v-22.5c0-5.5-4.5-10-10-10s-10,4.5-10,10V299h-22.5c-5.5,0-10,4.5-10,10s4.5,10,10,10H246v22.5   c0,5.5,4.5,10,10,10s10-4.5,10-10V319h22.5c5.5,0,10-4.5,10-10S294,299,288.5,299z"/>
<path class="st0" d="M383.8,155c5.5,0,10-4.5,10-10V94.5c0-16.5-13.5-30-30-30H148.2c-16.5,0-30,13.5-30,30V145c0,5.5,4.5,10,10,10   H145v27.2h-16.8c-5.5,0-10,4.5-10,10v225.3c0,16.5,13.5,30,30,30h215.7c16.5,0,30-13.5,30-30V192.2c0-5.5-4.5-10-10-10H367V155   H383.8z M138.2,94.5c0-5.5,4.5-10,10-10h215.7c5.5,0,10,4.5,10,10V135H357H155h-16.8V94.5z M373.8,417.5c0,5.5-4.5,10-10,10H148.2   c-5.5,0-10-4.5-10-10V202.2H155h202h16.8V417.5z M347,182.2H165V155h182V182.2z"/>
</g>
</svg>