<?xml version="1.0" encoding="iso-8859-1"?>
<!-- Uploaded to: SVG Repo, www.svgrepo.com, Generator: SVG Repo Mixer Tools -->
<svg fill="#000000" height="800px" width="800px" version="1.1" id="Layer_1" xmlns="http://www.w3.org/2000/svg" xmlns:xlink="http://www.w3.org/1999/xlink" 
	 viewBox="0 0 512 512" xml:space="preserve">
<g>
	<g>
		<path d="M218.155,193.997c-6.767-6.827-15.241-11.179-25.173-13.235c-1.783-14.251-6.673-24.883-12.698-32.555
			c19.208-22.212,27.716-55.04,20.352-86.246C191.607,23.74,160.981,0,120.687,0C37.316,0,0,96.435,0,192s37.316,192,120.687,192
			c40.294,0,70.929-23.74,79.949-61.961c7.518-31.829-1.485-65.34-21.504-87.552c6.716-7.578,10.965-16.76,13.082-27.298
			c3.635,1.408,6.135,3.217,7.74,4.838c20.028,20.198,19.302,89.353,18.253,194.048c-0.273,27.998-0.597,58.974-0.597,93.124
			c0,7.074,5.726,12.8,12.8,12.8c7.074,0,12.8-5.726,12.8-12.8c0-34.048,0.324-64.947,0.597-92.877
			C245.052,283.477,245.683,221.798,218.155,193.997z M168.226,192c0,47.539-53.837,32.512-23.774,47.539
			C192,263.313,192,358.4,120.687,358.4S25.6,263.313,25.6,192S49.374,25.6,120.687,25.6S192,120.687,144.461,144.461
			C123.196,155.085,168.226,144.461,168.226,192z"/>
	</g>
</g>
<g>
	<g>
		<path d="M391.313,0c-40.294,0-70.929,23.74-79.949,61.961c-7.364,31.206,1.143,64.034,20.352,86.246
			c-6.025,7.671-10.914,18.304-12.698,32.555c-9.933,2.057-18.406,6.409-25.165,13.235c-27.529,27.802-26.897,89.472-25.651,212.326
			c0.273,27.921,0.597,58.829,0.597,92.877c0,7.074,5.726,12.8,12.8,12.8c7.074,0,12.8-5.726,12.8-12.8
			c0-34.15-0.324-65.126-0.597-93.124c-1.05-104.704-1.775-173.85,18.253-194.048c1.604-1.63,4.104-3.43,7.74-4.838
			c2.116,10.539,6.366,19.721,13.082,27.298c-20.019,22.212-29.013,55.723-21.504,87.552c9.02,38.221,39.646,61.961,79.94,61.961
			C474.684,384,512,287.565,512,192S474.684,0,391.313,0z M391.313,358.4C320,358.4,320,263.313,367.539,239.539
			c30.071-15.036-23.774,0-23.774-47.539s45.03-36.915,23.774-47.539C320,120.687,320,25.6,391.313,25.6S486.4,120.687,486.4,192
			S462.626,358.4,391.313,358.4z"/>
	</g>
</g>
</svg>